<svg xmlns="http://www.w3.org/2000/svg" xmlns:xlink="http://www.w3.org/1999/xlink" width="500" zoomAndPan="magnify" viewBox="0 0 375 374.999991" height="500" preserveAspectRatio="xMidYMid meet" version="1.0"><defs><g/><clipPath id="9577a1a0b0"><rect x="0" width="51" y="0" height="104"/></clipPath><clipPath id="cc0df26ff9"><path d="M 3 21 L 40.601562 21 L 40.601562 59 L 3 59 Z M 3 21 " clip-rule="nonzero"/></clipPath><clipPath id="750d943364"><rect x="0" width="41" y="0" height="82"/></clipPath></defs><g transform="matrix(1, 0, 0, 1, 189, 125)"><g clip-path="url(#9577a1a0b0)"><g fill="#eeede9" fill-opacity="1"><g transform="translate(0.68593, 84.421286)"><g><path d="M 17.828125 0.640625 C 14.671875 0.640625 11.9375 0.0507812 9.625 -1.125 C 7.3125 -2.3125 5.550781 -3.859375 4.34375 -5.765625 C 3.144531 -7.679688 2.546875 -9.695312 2.546875 -11.8125 L 2.546875 -12.3125 L 13.234375 -12.3125 L 13.234375 -11.890625 C 13.234375 -10.804688 13.65625 -9.847656 14.5 -9.015625 C 15.351562 -8.191406 16.554688 -7.78125 18.109375 -7.78125 C 19.429688 -7.78125 20.492188 -8.097656 21.296875 -8.734375 C 22.097656 -9.367188 22.5 -10.207031 22.5 -11.25 C 22.5 -12.195312 22.117188 -12.953125 21.359375 -13.515625 C 20.609375 -14.078125 19.671875 -14.457031 18.546875 -14.65625 L 14.5 -15.5 C 11.769531 -15.96875 9.25 -17.0625 6.9375 -18.78125 C 4.625 -20.507812 3.46875 -23.164062 3.46875 -26.75 C 3.46875 -30.382812 4.773438 -33.203125 7.390625 -35.203125 C 10.015625 -37.210938 13.378906 -38.21875 17.484375 -38.21875 C 20.546875 -38.21875 23.1875 -37.671875 25.40625 -36.578125 C 27.625 -35.492188 29.296875 -34.066406 30.421875 -32.296875 C 31.554688 -30.535156 32.125 -28.660156 32.125 -26.671875 L 32.125 -26.328125 L 21.4375 -26.328125 L 21.4375 -26.53125 C 21.4375 -27.476562 21.082031 -28.351562 20.375 -29.15625 C 19.664062 -29.957031 18.582031 -30.359375 17.125 -30.359375 C 15.894531 -30.359375 14.914062 -30.0625 14.1875 -29.46875 C 13.457031 -28.882812 13.09375 -28.070312 13.09375 -27.03125 C 13.09375 -25.1875 14.625 -23.984375 17.6875 -23.421875 L 22.078125 -22.4375 C 25.046875 -21.769531 27.554688 -20.5625 29.609375 -18.8125 C 31.660156 -17.070312 32.6875 -14.597656 32.6875 -11.390625 C 32.6875 -8.941406 32.035156 -6.804688 30.734375 -4.984375 C 29.441406 -3.171875 27.664062 -1.78125 25.40625 -0.8125 C 23.144531 0.15625 20.617188 0.640625 17.828125 0.640625 Z M 17.828125 0.640625 "/></g></g></g><g fill="#eeede9" fill-opacity="1"><g transform="translate(29.911229, 84.421286)"><g><path d="M 11.890625 0.640625 C 10.140625 0.640625 8.695312 0.0507812 7.5625 -1.125 C 6.4375 -2.3125 5.875 -3.753906 5.875 -5.453125 C 5.875 -7.148438 6.4375 -8.578125 7.5625 -9.734375 C 8.695312 -10.890625 10.140625 -11.46875 11.890625 -11.46875 C 13.628906 -11.46875 15.078125 -10.890625 16.234375 -9.734375 C 17.390625 -8.578125 17.96875 -7.148438 17.96875 -5.453125 C 17.96875 -3.753906 17.378906 -2.3125 16.203125 -1.125 C 15.023438 0.0507812 13.585938 0.640625 11.890625 0.640625 Z M 11.890625 0.640625 "/></g></g></g></g></g><g transform="matrix(1, 0, 0, 1, 149, 151)"><g clip-path="url(#750d943364)"><g clip-path="url(#cc0df26ff9)"><g fill="#eeede9" fill-opacity="1"><g transform="translate(1.34342, 57.980314)"><g><path d="M 24.9375 -36.640625 C 26.382812 -36.640625 27.691406 -36.144531 28.859375 -35.15625 C 30.035156 -34.164062 30.757812 -32.789062 31.03125 -31.03125 L 31.1875 -31.03125 L 32.46875 -35.765625 L 38.8125 -36.640625 L 30.546875 -7.703125 C 30.492188 -7.585938 30.359375 -7.179688 30.140625 -6.484375 C 29.929688 -5.796875 29.828125 -5.101562 29.828125 -4.40625 C 29.828125 -3.976562 29.929688 -3.644531 30.140625 -3.40625 C 30.359375 -3.164062 30.601562 -3.046875 30.875 -3.046875 C 31.570312 -3.046875 32.453125 -3.523438 33.515625 -4.484375 C 34.585938 -5.453125 35.601562 -6.789062 36.5625 -8.5 L 37.765625 -7.703125 C 36.328125 -5.023438 34.5 -2.910156 32.28125 -1.359375 C 30.0625 0.191406 28.09375 0.96875 26.375 0.96875 C 25.414062 0.96875 24.695312 0.617188 24.21875 -0.078125 C 23.738281 -0.773438 23.5 -1.628906 23.5 -2.640625 C 23.5 -3.335938 23.644531 -4.472656 23.9375 -6.046875 C 24.226562 -7.628906 24.695312 -9.222656 25.34375 -10.828125 L 25.171875 -10.984375 C 19.191406 -3.015625 13.769531 0.96875 8.90625 0.96875 C 6.757812 0.96875 5.054688 0.046875 3.796875 -1.796875 C 2.546875 -3.648438 1.921875 -5.773438 1.921875 -8.171875 C 1.921875 -12.347656 3.132812 -16.664062 5.5625 -21.125 C 8 -25.59375 11.019531 -29.296875 14.625 -32.234375 C 18.238281 -35.171875 21.675781 -36.640625 24.9375 -36.640625 Z M 8.34375 -9.703125 C 8.34375 -7.617188 8.820312 -6.09375 9.78125 -5.125 C 10.738281 -4.164062 11.863281 -3.6875 13.15625 -3.6875 C 14.8125 -3.6875 16.597656 -4.429688 18.515625 -5.921875 C 20.441406 -7.421875 22.21875 -9.332031 23.84375 -11.65625 C 25.476562 -13.988281 26.695312 -16.359375 27.5 -18.765625 C 28.300781 -21.117188 28.890625 -23.054688 29.265625 -24.578125 C 29.640625 -26.097656 29.828125 -27.582031 29.828125 -29.03125 C 29.828125 -31.113281 29.34375 -32.648438 28.375 -33.640625 C 27.414062 -34.628906 26.296875 -35.125 25.015625 -35.125 C 22.503906 -35.125 19.953125 -33.585938 17.359375 -30.515625 C 14.765625 -27.441406 12.613281 -23.84375 10.90625 -19.71875 C 9.195312 -15.601562 8.34375 -12.265625 8.34375 -9.703125 Z M 8.34375 -9.703125 "/></g></g></g></g></g></g></svg>