<svg xmlns="http://www.w3.org/2000/svg" xmlns:xlink="http://www.w3.org/1999/xlink" width="500" zoomAndPan="magnify" viewBox="0 0 375 374.999991" height="500" preserveAspectRatio="xMidYMid meet" version="1.0"><defs><g/><clipPath id="d21862a2bd"><rect x="0" width="123" y="0" height="105"/></clipPath><clipPath id="4cf9d57742"><path d="M 94 21 L 128.960938 21 L 128.960938 60 L 94 60 Z M 94 21 " clip-rule="nonzero"/></clipPath><clipPath id="cb2e844e58"><rect x="0" width="129" y="0" height="82"/></clipPath></defs><g transform="matrix(1, 0, 0, 1, 193, 119)"><g clip-path="url(#d21862a2bd)"><g fill="#eeede9" fill-opacity="1"><g transform="translate(0.466967, 84.873147)"><g><path d="M 17.828125 0.640625 C 14.671875 0.640625 11.9375 0.0507812 9.625 -1.125 C 7.3125 -2.3125 5.550781 -3.859375 4.34375 -5.765625 C 3.144531 -7.679688 2.546875 -9.695312 2.546875 -11.8125 L 2.546875 -12.3125 L 13.234375 -12.3125 L 13.234375 -11.890625 C 13.234375 -10.804688 13.65625 -9.847656 14.5 -9.015625 C 15.351562 -8.191406 16.554688 -7.78125 18.109375 -7.78125 C 19.429688 -7.78125 20.492188 -8.097656 21.296875 -8.734375 C 22.097656 -9.367188 22.5 -10.207031 22.5 -11.25 C 22.5 -12.195312 22.117188 -12.953125 21.359375 -13.515625 C 20.609375 -14.078125 19.671875 -14.457031 18.546875 -14.65625 L 14.5 -15.5 C 11.769531 -15.96875 9.25 -17.0625 6.9375 -18.78125 C 4.625 -20.507812 3.46875 -23.164062 3.46875 -26.75 C 3.46875 -30.382812 4.773438 -33.203125 7.390625 -35.203125 C 10.015625 -37.210938 13.378906 -38.21875 17.484375 -38.21875 C 20.546875 -38.21875 23.1875 -37.671875 25.40625 -36.578125 C 27.625 -35.492188 29.296875 -34.066406 30.421875 -32.296875 C 31.554688 -30.535156 32.125 -28.660156 32.125 -26.671875 L 32.125 -26.328125 L 21.4375 -26.328125 L 21.4375 -26.53125 C 21.4375 -27.476562 21.082031 -28.351562 20.375 -29.15625 C 19.664062 -29.957031 18.582031 -30.359375 17.125 -30.359375 C 15.894531 -30.359375 14.914062 -30.0625 14.1875 -29.46875 C 13.457031 -28.882812 13.09375 -28.070312 13.09375 -27.03125 C 13.09375 -25.1875 14.625 -23.984375 17.6875 -23.421875 L 22.078125 -22.4375 C 25.046875 -21.769531 27.554688 -20.5625 29.609375 -18.8125 C 31.660156 -17.070312 32.6875 -14.597656 32.6875 -11.390625 C 32.6875 -8.941406 32.035156 -6.804688 30.734375 -4.984375 C 29.441406 -3.171875 27.664062 -1.78125 25.40625 -0.8125 C 23.144531 0.15625 20.617188 0.640625 17.828125 0.640625 Z M 17.828125 0.640625 "/></g></g></g><g fill="#eeede9" fill-opacity="1"><g transform="translate(29.692266, 84.873147)"><g><path d="M 38.140625 0 L 27.03125 0 L 27.03125 -5.59375 L 26.53125 -5.59375 C 25.726562 -3.84375 24.453125 -2.351562 22.703125 -1.125 C 20.960938 0.09375 18.84375 0.703125 16.34375 0.703125 C 11.488281 0.703125 8.164062 -0.851562 6.375 -3.96875 C 4.582031 -7.082031 3.6875 -10.546875 3.6875 -14.359375 L 3.6875 -37.4375 L 14.65625 -37.4375 L 14.65625 -16.203125 C 14.65625 -13.847656 15.148438 -11.945312 16.140625 -10.5 C 17.128906 -9.0625 18.660156 -8.34375 20.734375 -8.34375 C 22.898438 -8.34375 24.488281 -9.085938 25.5 -10.578125 C 26.519531 -12.066406 27.03125 -13.941406 27.03125 -16.203125 L 27.03125 -37.4375 L 38.140625 -37.4375 Z M 38.140625 0 "/></g></g></g><g fill="#eeede9" fill-opacity="1"><g transform="translate(66.206211, 84.873147)"><g><path d="M 26.25 0.640625 C 23.132812 0.640625 20.726562 -0.0664062 19.03125 -1.484375 C 17.332031 -2.898438 16.082031 -4.410156 15.28125 -6.015625 L 14.71875 -6.015625 L 14.71875 0 L 3.609375 0 L 3.609375 -53.140625 L 14.71875 -53.140625 L 14.71875 -31.921875 L 15.28125 -31.921875 C 15.945312 -33.328125 17.140625 -34.726562 18.859375 -36.125 C 20.578125 -37.519531 23.019531 -38.21875 26.1875 -38.21875 C 30.851562 -38.21875 34.445312 -36.46875 36.96875 -32.96875 C 39.5 -29.476562 40.765625 -24.738281 40.765625 -18.75 C 40.765625 -12.851562 39.5 -8.144531 36.96875 -4.625 C 34.445312 -1.113281 30.875 0.640625 26.25 0.640625 Z M 22.15625 -8.0625 C 24.695312 -8.0625 26.566406 -9.125 27.765625 -11.25 C 28.972656 -13.375 29.578125 -15.875 29.578125 -18.75 C 29.578125 -21.625 28.972656 -24.085938 27.765625 -26.140625 C 26.566406 -28.191406 24.695312 -29.21875 22.15625 -29.21875 C 19.601562 -29.21875 17.722656 -28.179688 16.515625 -26.109375 C 15.316406 -24.035156 14.71875 -21.582031 14.71875 -18.75 C 14.71875 -15.875 15.332031 -13.375 16.5625 -11.25 C 17.789062 -9.125 19.65625 -8.0625 22.15625 -8.0625 Z M 22.15625 -8.0625 "/></g></g></g><g fill="#eeede9" fill-opacity="1"><g transform="translate(103.852372, 84.873147)"><g><path d="M 11.890625 0.640625 C 10.140625 0.640625 8.695312 0.0507812 7.5625 -1.125 C 6.4375 -2.3125 5.875 -3.753906 5.875 -5.453125 C 5.875 -7.148438 6.4375 -8.578125 7.5625 -9.734375 C 8.695312 -10.890625 10.140625 -11.46875 11.890625 -11.46875 C 13.628906 -11.46875 15.078125 -10.890625 16.234375 -9.734375 C 17.390625 -8.578125 17.96875 -7.148438 17.96875 -5.453125 C 17.96875 -3.753906 17.378906 -2.3125 16.203125 -1.125 C 15.023438 0.0507812 13.585938 0.640625 11.890625 0.640625 Z M 11.890625 0.640625 "/></g></g></g></g></g><g transform="matrix(1, 0, 0, 1, 64, 146)"><g clip-path="url(#cb2e844e58)"><g fill="#eeede9" fill-opacity="1"><g transform="translate(1.318945, 58.30632)"><g><path d="M 24.9375 -36.640625 C 26.382812 -36.640625 27.691406 -36.144531 28.859375 -35.15625 C 30.035156 -34.164062 30.757812 -32.789062 31.03125 -31.03125 L 31.1875 -31.03125 L 32.46875 -35.765625 L 38.8125 -36.640625 L 30.546875 -7.703125 C 30.492188 -7.585938 30.359375 -7.179688 30.140625 -6.484375 C 29.929688 -5.796875 29.828125 -5.101562 29.828125 -4.40625 C 29.828125 -3.976562 29.929688 -3.644531 30.140625 -3.40625 C 30.359375 -3.164062 30.601562 -3.046875 30.875 -3.046875 C 31.570312 -3.046875 32.453125 -3.523438 33.515625 -4.484375 C 34.585938 -5.453125 35.601562 -6.789062 36.5625 -8.5 L 37.765625 -7.703125 C 36.328125 -5.023438 34.5 -2.910156 32.28125 -1.359375 C 30.0625 0.191406 28.09375 0.96875 26.375 0.96875 C 25.414062 0.96875 24.695312 0.617188 24.21875 -0.078125 C 23.738281 -0.773438 23.5 -1.628906 23.5 -2.640625 C 23.5 -3.335938 23.644531 -4.472656 23.9375 -6.046875 C 24.226562 -7.628906 24.695312 -9.222656 25.34375 -10.828125 L 25.171875 -10.984375 C 19.191406 -3.015625 13.769531 0.96875 8.90625 0.96875 C 6.757812 0.96875 5.054688 0.046875 3.796875 -1.796875 C 2.546875 -3.648438 1.921875 -5.773438 1.921875 -8.171875 C 1.921875 -12.347656 3.132812 -16.664062 5.5625 -21.125 C 8 -25.59375 11.019531 -29.296875 14.625 -32.234375 C 18.238281 -35.171875 21.675781 -36.640625 24.9375 -36.640625 Z M 8.34375 -9.703125 C 8.34375 -7.617188 8.820312 -6.09375 9.78125 -5.125 C 10.738281 -4.164062 11.863281 -3.6875 13.15625 -3.6875 C 14.8125 -3.6875 16.597656 -4.429688 18.515625 -5.921875 C 20.441406 -7.421875 22.21875 -9.332031 23.84375 -11.65625 C 25.476562 -13.988281 26.695312 -16.359375 27.5 -18.765625 C 28.300781 -21.117188 28.890625 -23.054688 29.265625 -24.578125 C 29.640625 -26.097656 29.828125 -27.582031 29.828125 -29.03125 C 29.828125 -31.113281 29.34375 -32.648438 28.375 -33.640625 C 27.414062 -34.628906 26.296875 -35.125 25.015625 -35.125 C 22.503906 -35.125 19.953125 -33.585938 17.359375 -30.515625 C 14.765625 -27.441406 12.613281 -23.84375 10.90625 -19.71875 C 9.195312 -15.601562 8.34375 -12.265625 8.34375 -9.703125 Z M 8.34375 -9.703125 "/></g></g></g><g fill="#eeede9" fill-opacity="1"><g transform="translate(35.799773, 58.30632)"><g><path d="M 13.796875 -36.640625 C 14.648438 -36.640625 15.394531 -36.316406 16.03125 -35.671875 C 16.675781 -35.035156 17 -34.238281 17 -33.28125 C 17 -32.15625 16.734375 -30.6875 16.203125 -28.875 L 10.75 -10.109375 C 10.207031 -7.960938 9.9375 -6.460938 9.9375 -5.609375 C 9.9375 -5.023438 10.132812 -4.554688 10.53125 -4.203125 C 10.9375 -3.859375 11.382812 -3.6875 11.875 -3.6875 C 13.363281 -3.6875 15.457031 -5.019531 18.15625 -7.6875 C 20.863281 -10.363281 23.445312 -13.664062 25.90625 -17.59375 C 28.363281 -21.53125 30.070312 -25.234375 31.03125 -28.703125 L 33.03125 -35.765625 L 39.046875 -35.765625 L 31.1875 -8.5 C 30.707031 -6.570312 30.46875 -5.234375 30.46875 -4.484375 C 30.46875 -4.171875 30.585938 -3.878906 30.828125 -3.609375 C 31.066406 -3.335938 31.320312 -3.203125 31.59375 -3.203125 C 32.238281 -3.203125 33.09375 -3.738281 34.15625 -4.8125 C 35.226562 -5.882812 36.21875 -7.113281 37.125 -8.5 L 38.25 -7.625 C 36.75 -5.425781 35.023438 -3.441406 33.078125 -1.671875 C 31.128906 0.0859375 29.21875 0.96875 27.34375 0.96875 C 26.332031 0.96875 25.582031 0.582031 25.09375 -0.1875 C 24.613281 -0.96875 24.375 -1.8125 24.375 -2.71875 C 24.375 -4.863281 25.039062 -8.179688 26.375 -12.671875 L 27.828125 -17.484375 L 27.671875 -17.5625 C 24.835938 -12.800781 21.628906 -8.519531 18.046875 -4.71875 C 14.460938 -0.925781 11.226562 0.96875 8.34375 0.96875 C 5.289062 0.96875 3.765625 -0.847656 3.765625 -4.484375 C 3.765625 -5.398438 3.925781 -6.523438 4.25 -7.859375 C 4.570312 -9.191406 5.132812 -11.25 5.9375 -14.03125 L 9.625 -26.859375 C 9.894531 -27.765625 10.09375 -28.5 10.21875 -29.0625 C 10.351562 -29.625 10.421875 -30.175781 10.421875 -30.71875 C 10.421875 -31.351562 10.300781 -31.789062 10.0625 -32.03125 C 9.820312 -32.269531 9.566406 -32.390625 9.296875 -32.390625 C 8.441406 -32.390625 7.597656 -31.945312 6.765625 -31.0625 C 5.941406 -30.1875 4.96875 -28.921875 3.84375 -27.265625 L 2.71875 -28.0625 C 3.84375 -30.09375 5.445312 -32.03125 7.53125 -33.875 C 9.625 -35.71875 11.710938 -36.640625 13.796875 -36.640625 Z M 13.796875 -36.640625 "/></g></g></g><g fill="#eeede9" fill-opacity="1"><g transform="translate(70.280602, 58.30632)"><g><path d="M 21.8125 -45.546875 L 23.328125 -45.546875 L 20.53125 -35.765625 L 26.140625 -35.765625 L 25.5 -33.28125 L 19.8125 -33.28125 L 12.671875 -8.34375 C 12.023438 -6.195312 11.703125 -4.753906 11.703125 -4.015625 C 11.703125 -3.046875 12.101562 -2.5625 12.90625 -2.5625 C 13.601562 -2.5625 14.457031 -2.945312 15.46875 -3.71875 C 16.488281 -4.5 17.4375 -5.367188 18.3125 -6.328125 C 19.195312 -7.296875 19.664062 -7.882812 19.71875 -8.09375 L 21.25 -8.09375 C 19.164062 -4.78125 17.082031 -2.441406 15 -1.078125 C 12.914062 0.285156 11.015625 0.96875 9.296875 0.96875 C 8.390625 0.96875 7.5625 0.617188 6.8125 -0.078125 C 6.0625 -0.773438 5.6875 -1.84375 5.6875 -3.28125 C 5.6875 -4.25 6.007812 -5.9375 6.65625 -8.34375 L 13.796875 -33.28125 L 7.78125 -33.28125 L 8.34375 -35.046875 C 11.5 -35.578125 14.078125 -36.789062 16.078125 -38.6875 C 18.078125 -40.582031 19.988281 -42.867188 21.8125 -45.546875 Z M 21.8125 -45.546875 "/></g></g></g><g clip-path="url(#4cf9d57742)"><g fill="#eeede9" fill-opacity="1"><g transform="translate(91.369786, 58.30632)"><g><path d="M 25.828125 -36.640625 C 27.742188 -36.640625 29.554688 -36.128906 31.265625 -35.109375 C 32.984375 -34.097656 34.363281 -32.671875 35.40625 -30.828125 C 36.445312 -28.984375 36.96875 -26.882812 36.96875 -24.53125 C 36.96875 -19.832031 35.765625 -15.53125 33.359375 -11.625 C 30.953125 -7.726562 27.941406 -4.65625 24.328125 -2.40625 C 20.722656 -0.15625 17.289062 0.96875 14.03125 0.96875 C 11.414062 0.96875 9.273438 0.285156 7.609375 -1.078125 C 5.953125 -2.441406 4.75 -4.085938 4 -6.015625 C 3.257812 -7.941406 2.890625 -9.757812 2.890625 -11.46875 C 2.890625 -15.101562 4.007812 -18.894531 6.25 -22.84375 C 8.5 -26.800781 11.398438 -30.085938 14.953125 -32.703125 C 18.503906 -35.328125 22.128906 -36.640625 25.828125 -36.640625 Z M 9.46875 -8.421875 C 9.46875 -6.285156 10.023438 -4.519531 11.140625 -3.125 C 12.265625 -1.738281 13.707031 -1.046875 15.46875 -1.046875 C 17.132812 -1.046875 18.703125 -1.539062 20.171875 -2.53125 C 21.640625 -3.519531 22.878906 -4.867188 23.890625 -6.578125 C 25.867188 -9.785156 27.484375 -13.351562 28.734375 -17.28125 C 29.992188 -21.207031 30.625 -24.484375 30.625 -27.109375 C 30.625 -32.347656 28.648438 -34.96875 24.703125 -34.96875 C 21.867188 -34.96875 19.285156 -33.398438 16.953125 -30.265625 C 14.628906 -27.140625 12.800781 -23.453125 11.46875 -19.203125 C 10.132812 -14.953125 9.46875 -11.359375 9.46875 -8.421875 Z M 9.46875 -8.421875 "/></g></g></g></g></g></g></svg>